name C:\Users\tom_v\MusculoskeletalSpecialization_revisited\Results\Case_12\motion.mot
datacolumns 32
datarows 8
range 0.30348978 0.33181549
endheader 
time	pelvis_tilt	pelvis_list	pelvis_rotation	pelvis_tx	pelvis_ty	pelvis_tz	hip_flexion_r	hip_adduction_r	hip_rotation_r	knee_angle_r	ankle_angle_r	subtalar_angle_r	mtp_angle_r	hip_flexion_l	hip_adduction_l	hip_rotation_l	knee_angle_l	ankle_angle_l	subtalar_angle_l	mtp_angle_l	lumbar_extension	lumbar_bending	lumbar_rotation	arm_flex_r	arm_add_r	arm_rot_r	elbow_flex_r	arm_flex_l	arm_add_l	arm_rot_l	elbow_flex_l	
          0.30348978	         -9.26327621	        -10.78564776	         20.00776444	          2.87991563	          0.92543410	         -0.00818158	         57.00699530	         -1.66772286	         -8.57085488	        -58.63614045	         19.04206488	         -7.82634827	          6.59934966	         -1.10706200	        -10.63683825	          4.13858948	        -35.56901439	        -20.43815992	        -23.28628051	         -3.96645043	         -5.84564154	          9.94606698	        -10.70886791	        -69.98739019	          4.80493225	         -5.36510069	          2.33067486	         49.95706454	        -41.55388333	        -12.92593473	        114.79438118	
          0.30753631	         -8.71973959	        -10.77179910	         20.19572380	          2.91765111	          0.92725344	         -0.00937361	         56.98015948	         -1.79986030	         -8.76843698	        -56.07957826	         20.20571527	         -9.85623712	          6.71274447	         -1.81680739	        -11.10391049	          4.50489293	        -36.84673838	        -20.87010264	        -18.11873973	         -1.77350797	         -6.48279506	         10.40932687	        -10.86038348	        -69.99997198	          4.60259220	         -9.73420958	          0.93482488	         49.92277464	        -40.71567490	        -12.64249406	        114.56611763	
          0.31158284	         -8.06267094	        -10.65827520	         20.40339589	          2.95529632	          0.92931526	         -0.01061937	         56.59983174	         -1.97031737	         -9.06088012	        -53.27044345	         21.24341814	        -11.55510808	          6.81504097	         -2.59984521	        -11.41291634	          4.92014949	        -38.08481949	        -20.57336292	        -15.87960297	          0.85576932	         -7.31979256	         10.81032252	        -10.95356979	        -69.99871431	          4.44226079	        -12.41743275	          0.16269625	         49.89022639	        -39.73641632	        -12.45454109	        114.42680548	
          0.31562937	         -7.29201775	        -10.45252871	         20.63426328	          2.99286059	          0.93162488	         -0.01186448	         55.88622672	         -2.13747122	         -9.38368282	        -50.29358470	         22.08677146	        -13.01231439	          6.89145770	         -3.42617049	        -11.58945031	          5.37919615	        -39.24429621	        -21.45789477	        -16.60805994	          2.87822241	         -8.35724839	         11.15604840	        -11.00435657	        -69.98738634	          4.38671234	        -13.19978468	          0.00001985	         49.87765866	        -38.69707876	        -12.42581373	        114.43712704	
          0.31967590	         -6.41591095	        -10.18935196	         20.90016231	          3.03035464	          0.93415040	         -0.01303366	         54.87470994	         -2.25179024	         -9.68847548	        -47.22567026	         22.72930603	        -14.35796510	          6.92448681	         -4.24534992	        -11.71652935	          5.92647090	        -40.39722815	        -22.54445525	        -17.48320711	          3.92272979	         -9.56768927	         11.47331237	        -11.03190249	        -69.82921595	          4.45509314	        -11.91307341	          0.03986103	         49.91057536	        -37.74244698	        -12.39100279	        114.55269972	
          0.32372243	         -5.50110514	         -9.88736145	         21.20538256	          3.06777091	          0.93676189	         -0.01407459	         53.66738838	         -2.31087116	         -9.91990514	        -44.15626011	         23.23338792	        -15.65235971	          6.90916959	         -4.95845459	        -11.81998647	          6.58274940	        -41.62344995	        -22.61868408	        -16.71582817	          4.50685037	        -10.86038818	         11.75227470	        -11.06879831	        -69.43334857	          4.62211224	         -8.49912443	          0.00176234	         49.96302170	        -37.06140322	        -12.08341640	        114.67075659	
          0.32776896	         -4.66826841	         -9.52787966	         21.52478541	          3.10510051	          0.93925147	         -0.01493750	         52.42510907	         -2.35620693	         -9.99999734	        -41.18903570	         23.67426170	        -16.91014732	          6.86067826	         -5.44066545	        -11.84159861	          7.26703532	        -42.91521875	        -22.33314272	        -15.15887715	          5.15989378	        -12.10294141	         11.92331090	        -11.14201909	        -68.88685500	          4.83341683	         -3.23321336	          0.13856545	         49.99748045	        -36.83456599	        -11.24897230	        114.67135111	
          0.33181549	         -3.96456430	         -9.10320114	         21.83007897	          3.14238217	          0.94153349	         -0.01558603	         51.21266509	         -2.39646956	         -9.89217626	        -38.37379810	         24.09370042	        -18.16759494	          6.83960385	         -5.66354631	        -11.76477300	          7.85130124	        -44.22945340	        -22.31936556	        -13.95058311	          5.67992681	        -13.24283953	         11.95493100	        -11.25336871	        -68.31579468	          4.99011760	          3.19562629	          0.89715611	         49.99056164	        -37.18592047	         -9.70300979	        114.48675488	
